<?xml version="1.0" encoding="utf-8"?>
<!-- Generator: Adobe Illustrator 16.0.3, SVG Export Plug-In . SVG Version: 6.00 Build 0)  -->
<!DOCTYPE svg PUBLIC "-//W3C//DTD SVG 1.1//EN" "http://www.w3.org/Graphics/SVG/1.1/DTD/svg11.dtd">
<svg version="1.1" id="Layer_1" xmlns="http://www.w3.org/2000/svg" xmlns:xlink="http://www.w3.org/1999/xlink" x="0px" y="0px"
	 width="612px" height="792px" viewBox="0 0 612 792" enable-background="new 0 0 612 792" xml:space="preserve">
<g>
	<path fill="#444441" d="M389.479,266.449c0,4.536-1.259,8.459-3.777,11.768c-2.737,3.601-6.248,5.4-10.528,5.4
		c-0.819,0-2.051-0.032-3.695-0.097c-1.645-0.064-2.877-0.097-3.694-0.097c-0.74,0-1.852,0.032-3.34,0.097
		c-1.487,0.065-2.601,0.097-3.34,0.097c-0.394,0-0.592-0.202-0.592-0.606c0-1.759,0.067-4.415,0.202-7.966
		c0.133-3.551,0.199-6.215,0.199-7.991c0-1.872-0.063-4.689-0.188-8.45c-0.125-3.762-0.188-6.579-0.188-8.451
		c0-0.339,0.204-0.508,0.613-0.508c0.582,0,1.451,0.007,2.61,0.023c1.155,0.017,2.025,0.024,2.607,0.024
		c0.535,0,1.354-0.008,2.455-0.024c1.102-0.016,1.936-0.023,2.502-0.023c5.461,0,9.529,1.057,12.205,3.171
		c1.921,1.518,3.408,3.56,4.462,6.126C388.982,261.332,389.479,263.833,389.479,266.449z M383.695,266.449
		c0-3.486-0.969-6.328-2.904-8.523c-2.015-2.276-4.705-3.414-8.074-3.414c-2.785,0-3.91-0.016-3.375-0.049
		c-1.841,0.097-2.763,0.444-2.763,1.041c0,1.243-0.027,3.104-0.083,5.582c-0.055,2.479-0.082,4.338-0.082,5.582
		c0,1.227,0.027,3.067,0.082,5.521c0.056,2.454,0.083,4.294,0.083,5.521c0,0.614,0.944,0.969,2.833,1.066
		c-0.252-0.016,0.897-0.024,3.446-0.024c1.811,0,3.249-0.193,4.32-0.581c1.322-0.484,2.512-1.38,3.564-2.688
		C382.711,273.026,383.695,270.017,383.695,266.449z"/>
	<path fill="#444441" d="M414.645,271.824c0,3.374-1.08,6.255-3.234,8.645c-2.204,2.47-4.935,3.704-8.191,3.704
		c-3.274,0-6.012-1.226-8.216-3.68c-2.155-2.373-3.233-5.246-3.233-8.62c0-3.373,1.078-6.247,3.233-8.62
		c2.22-2.421,4.958-3.632,8.216-3.632c3.242,0,5.965,1.211,8.167,3.632C413.558,265.609,414.645,268.467,414.645,271.824z
		 M409.663,271.873c0-1.969-0.591-3.648-1.771-5.037c-1.227-1.468-2.784-2.203-4.673-2.203c-1.89,0-3.455,0.727-4.699,2.179
		c-1.181,1.404-1.77,3.091-1.77,5.061c0,1.937,0.598,3.616,1.794,5.037c1.259,1.501,2.817,2.251,4.675,2.251
		c1.871,0,3.43-0.75,4.673-2.251C409.072,275.489,409.663,273.81,409.663,271.873z"/>
	<path fill="#444441" d="M438.77,283.132c0,0.355-0.157,0.532-0.474,0.532c-0.518,0-1.293-0.007-2.323-0.023
		c-1.031-0.017-1.806-0.024-2.326-0.024c-0.283,0-0.425-0.234-0.425-0.702c0-0.792,0.024-1.994,0.07-3.608
		c0.049-1.614,0.071-2.825,0.071-3.632c0-0.646-0.008-1.61-0.022-2.894c-0.018-1.283-0.023-2.248-0.023-2.894
		c0-1.84-0.26-3.139-0.78-3.898c-0.629-0.904-1.794-1.356-3.492-1.356c-0.787,0-1.882,0.452-3.282,1.356
		c-1.479,0.953-2.218,1.8-2.218,2.543v14.528c0,0.404-0.152,0.604-0.451,0.604c-0.502,0-1.258-0.007-2.265-0.023
		c-1.009-0.017-1.765-0.024-2.267-0.024c-0.331,0-0.496-0.186-0.496-0.557c0-1.275,0.02-3.188,0.06-5.739
		c0.039-2.55,0.059-4.471,0.059-5.763c0-3.438-0.354-6.61-1.063-9.516c-0.047-0.146-0.071-0.25-0.071-0.315
		c0-0.161,0.103-0.275,0.308-0.339c0.109-0.015,1.011-0.165,2.702-0.447c1.693-0.282,2.578-0.424,2.656-0.424
		c0.095,0,0.157,0.129,0.189,0.388c0.078,1.001,0.26,2.01,0.542,3.027c0.819-0.662,1.897-1.485,3.233-2.47
		c1.654-1.032,3.25-1.55,4.794-1.55c2.958,0,4.981,0.881,6.067,2.64c0.802,1.292,1.204,3.382,1.204,6.271
		c0,0.5-0.013,1.268-0.036,2.3c-0.024,1.034-0.035,1.808-0.035,2.325c0,1.082,0.015,2.696,0.046,4.842
		C438.754,280.436,438.77,282.05,438.77,283.132z"/>
	<path fill="#444441" d="M464.054,283.132c0,0.355-0.157,0.532-0.472,0.532c-0.52,0-1.294-0.007-2.326-0.023
		c-1.03-0.017-1.806-0.024-2.325-0.024c-0.284,0-0.425-0.234-0.425-0.702c0-0.792,0.024-1.994,0.071-3.608
		c0.047-1.614,0.069-2.825,0.069-3.632c0-0.646-0.008-1.61-0.022-2.894c-0.016-1.283-0.023-2.248-0.023-2.894
		c0-1.84-0.26-3.139-0.779-3.898c-0.63-0.904-1.793-1.356-3.494-1.356c-0.786,0-1.881,0.452-3.281,1.356
		c-1.479,0.953-2.219,1.8-2.219,2.543v14.528c0,0.404-0.15,0.604-0.447,0.604c-0.506,0-1.261-0.007-2.268-0.023
		c-1.007-0.017-1.763-0.024-2.266-0.024c-0.331,0-0.496-0.186-0.496-0.557c0-1.275,0.019-3.188,0.058-5.739
		c0.041-2.55,0.06-4.471,0.06-5.763c0-3.438-0.354-6.61-1.063-9.516c-0.048-0.146-0.071-0.25-0.071-0.315
		c0-0.161,0.103-0.275,0.309-0.339c0.108-0.015,1.011-0.165,2.702-0.447c1.692-0.282,2.577-0.424,2.656-0.424
		c0.094,0,0.156,0.129,0.188,0.388c0.079,1.001,0.261,2.01,0.543,3.027c0.819-0.662,1.897-1.485,3.235-2.47
		c1.652-1.032,3.251-1.55,4.792-1.55c2.959,0,4.98,0.881,6.067,2.64c0.802,1.292,1.204,3.382,1.204,6.271
		c0,0.5-0.013,1.268-0.034,2.3c-0.026,1.034-0.037,1.808-0.037,2.325c0,1.082,0.016,2.696,0.048,4.842
		C464.037,280.436,464.054,282.05,464.054,283.132z"/>
	<path fill="#444441" d="M488.535,270.613c0,1.195-0.504,1.994-1.512,2.397c-0.677,0.258-5.548,0.735-14.613,1.428
		c0.205,1.421,0.968,2.632,2.29,3.632c1.259,0.953,2.613,1.429,4.062,1.429c2.486,0,4.769-0.823,6.846-2.47
		c0.251-0.21,0.503-0.419,0.755-0.629c0.126,0,0.209,0.016,0.248,0.048s0.335,0.594,0.886,1.683
		c0.549,1.089,0.826,1.674,0.826,1.755c0,0.097-0.126,0.283-0.378,0.557c-2.313,2.519-5.279,3.777-8.899,3.777
		c-3.652,0-6.563-1.117-8.735-3.354c-2.172-2.235-3.258-5.218-3.258-8.947c0-3.326,1.039-6.223,3.116-8.693
		c2.188-2.566,4.871-3.849,8.05-3.849c2.96,0,5.429,1.113,7.413,3.341C487.566,264.883,488.535,267.514,488.535,270.613z
		 M482.916,269.136c0-1.339-0.517-2.526-1.546-3.559c-1.031-1.033-2.191-1.549-3.482-1.549c-1.448,0-2.734,0.597-3.86,1.791
		c-1.125,1.195-1.688,2.535-1.688,4.02c0,0.339,0.283,0.509,0.85,0.509c2.33,0,5.115-0.242,8.358-0.726
		C482.459,269.492,482.916,269.33,482.916,269.136z"/>
	<path fill="#444441" d="M504.987,279.161c0,0.355-0.029,0.84-0.094,1.454c-0.078,0.759-0.127,1.25-0.141,1.477
		c-0.018,0.291-0.04,0.468-0.072,0.533c-0.063,0.114-0.212,0.227-0.447,0.339c-1.291,0.629-3.322,0.944-6.091,0.944
		c-3.683,0-5.524-1.711-5.524-5.133c0-1.373,0.03-3.435,0.094-6.187c0.064-2.751,0.095-4.815,0.095-6.187
		c0-0.661-0.322-1.017-0.968-1.065c-0.582,0-1.156-0.008-1.724-0.024c-0.331-0.08-0.494-0.742-0.494-1.986
		c0-0.468,0.03-0.96,0.094-1.477c0.047-0.387,0.298-0.621,0.755-0.702c0.393,0,0.779-0.008,1.157-0.024
		c0.725-0.032,1.085-0.364,1.085-0.993c0-0.646-0.02-1.63-0.06-2.955c-0.039-1.323-0.058-2.315-0.058-2.978
		c0-1.178,0.221-1.768,0.661-1.768c0.141,0,1.621,0.251,4.438,0.751c0.361,0.048,0.544,0.227,0.544,0.533
		c0,0.71-0.052,1.776-0.154,3.196c-0.104,1.421-0.153,2.486-0.153,3.197c0,0.468,0.213,0.702,0.638,0.702h5.666
		c0.268,0,0.401,0.097,0.401,0.291c0,0.194-0.028,0.505-0.083,0.933c-0.055,0.428-0.083,0.747-0.083,0.957
		c0,0.242,0.008,0.614,0.024,1.114c0.015,0.5,0.023,0.871,0.023,1.114c0,0.306-0.221,0.459-0.661,0.459
		c-0.629,0-1.581-0.043-2.855-0.132c-1.276-0.089-2.228-0.133-2.857-0.133c-0.127,0-0.22,0.46-0.283,1.38
		c-0.079,1.146-0.118,2.752-0.118,4.818v3.607c0,1.389,0.127,2.357,0.377,2.906c0.379,0.839,1.157,1.258,2.339,1.258
		c0.486,0,1.202-0.108,2.146-0.327s1.645-0.327,2.102-0.327C504.894,278.725,504.987,278.87,504.987,279.161z"/>
	<path fill="#444441" d="M531.311,261.703c0,0.065-0.023,0.21-0.07,0.436c-0.614,3.697-0.922,6.885-0.922,9.565
		c0,0.161,0.198,3.785,0.591,10.871l0.022,0.34c0.018,0.468-0.191,0.702-0.624,0.702c-0.434,0-1.087,0.052-1.96,0.157
		c-0.872,0.104-1.523,0.157-1.947,0.157c-0.3,0-0.528-0.565-0.686-1.695s-0.306-1.695-0.447-1.695c-0.096,0-0.521,0.314-1.274,0.944
		c-0.931,0.775-1.795,1.365-2.598,1.768c-1.243,0.646-2.487,0.969-3.73,0.969c-3.054,0-5.626-1.251-7.719-3.753
		c-1.983-2.389-2.976-5.174-2.976-8.354c0-3.583,1-6.546,2.999-8.887c2.092-2.437,4.849-3.656,8.263-3.656
		c2.407,0,4.509,0.856,6.302,2.566c0.269,0.323,0.686,0.792,1.252,1.405c0.048,0.047,0.094,0.072,0.141,0.072
		c0.095,0,0.229-0.508,0.403-1.525c0.172-1.017,0.394-1.525,0.66-1.525c0.425,0,1.22,0.121,2.385,0.363
		C530.665,261.219,531.311,261.477,531.311,261.703z M525.291,271.824c0-1.986-0.574-3.688-1.723-5.109
		c-1.214-1.533-2.763-2.3-4.652-2.3c-1.889,0-3.462,0.759-4.721,2.276c-1.212,1.453-1.817,3.164-1.817,5.133
		c0,1.953,0.605,3.648,1.817,5.085c1.259,1.501,2.832,2.251,4.721,2.251c1.843,0,3.384-0.766,4.627-2.3
		C524.707,275.424,525.291,273.746,525.291,271.824z"/>
</g>
<g>
	<path fill="#444441" d="M176.769,385.449c0,10.791-3.02,20.122-9.057,27.995c-6.564,8.563-14.98,12.844-25.243,12.844
		c-1.962,0-4.916-0.076-8.857-0.23c-3.944-0.152-6.896-0.229-8.859-0.229c-1.773,0-4.442,0.077-8.009,0.229
		c-3.565,0.154-6.235,0.23-8.008,0.23c-0.944,0-1.415-0.479-1.415-1.439c0-4.186,0.16-10.502,0.481-18.951
		c0.32-8.447,0.481-14.783,0.481-19.007c0-4.454-0.151-11.155-0.454-20.104c-0.302-8.947-0.452-15.647-0.452-20.103
		c0-0.807,0.489-1.21,1.472-1.21c1.395,0,3.48,0.021,6.254,0.059c2.774,0.039,4.858,0.057,6.254,0.057
		c1.283,0,3.245-0.018,5.887-0.057c2.64-0.038,4.642-0.059,6-0.059c13.093,0,22.847,2.516,29.262,7.547
		c4.603,3.61,8.168,8.467,10.697,14.572C175.58,373.275,176.769,379.227,176.769,385.449z M162.902,385.449
		c0-8.295-2.322-15.053-6.962-20.275c-4.83-5.415-11.282-8.123-19.357-8.123c-6.679,0-9.377-0.038-8.095-0.115
		c-4.415,0.23-6.622,1.057-6.622,2.477c0,2.958-0.067,7.384-0.198,13.277c-0.132,5.895-0.198,10.321-0.198,13.277
		c0,2.919,0.066,7.296,0.198,13.132c0.131,5.838,0.198,10.216,0.198,13.133c0,1.461,2.264,2.305,6.792,2.535
		c-0.605-0.037,2.151-0.059,8.263-0.059c4.339,0,7.792-0.46,10.358-1.382c3.17-1.151,6.019-3.283,8.547-6.394
		C160.542,401.098,162.902,393.936,162.902,385.449z"/>
	<path fill="#444441" d="M322.628,425.137c0,0.844-0.379,1.266-1.133,1.266c-1.245,0-3.104-0.02-5.575-0.058
		c-2.472-0.038-4.33-0.058-5.575-0.058c-0.679,0-1.02-0.556-1.02-1.67c0-1.881,0.058-4.742,0.171-8.582s0.17-6.72,0.17-8.641
		c0-1.535-0.02-3.83-0.057-6.883c-0.038-3.054-0.058-5.347-0.058-6.884c0-4.377-0.623-7.469-1.867-9.274
		c-1.51-2.15-4.302-3.226-8.377-3.226c-1.887,0-4.509,1.076-7.867,3.226c-3.548,2.267-5.32,4.283-5.32,6.048v34.561
		c0,0.961-0.359,1.439-1.075,1.439c-1.209,0-3.02-0.02-5.435-0.058c-2.416-0.038-4.226-0.058-5.433-0.058
		c-0.792,0-1.189-0.44-1.189-1.324c0-3.033,0.047-7.584,0.141-13.652c0.094-6.065,0.142-10.635,0.142-13.708
		c0-8.18-0.85-15.725-2.547-22.638c-0.113-0.345-0.169-0.594-0.169-0.748c0-0.384,0.245-0.652,0.735-0.807
		c0.264-0.038,2.424-0.394,6.481-1.065c4.056-0.671,6.178-1.008,6.367-1.008c0.226,0,0.376,0.307,0.453,0.92
		c0.188,2.382,0.623,4.781,1.302,7.201c1.961-1.574,4.546-3.532,7.755-5.875c3.961-2.457,7.791-3.687,11.489-3.687
		c7.093,0,11.942,2.094,14.547,6.279c1.924,3.073,2.886,8.046,2.886,14.918c0,1.191-0.028,3.016-0.085,5.472
		c-0.056,2.458-0.085,4.301-0.085,5.531c0,2.572,0.037,6.413,0.113,11.52C322.59,418.723,322.628,422.563,322.628,425.137z"/>
	<path fill="#444441" d="M383.247,425.137c0,0.844-0.379,1.266-1.133,1.266c-1.245,0-3.104-0.02-5.575-0.058
		c-2.472-0.038-4.33-0.058-5.575-0.058c-0.679,0-1.02-0.556-1.02-1.67c0-1.881,0.058-4.742,0.171-8.582s0.17-6.72,0.17-8.641
		c0-1.535-0.02-3.83-0.057-6.883c-0.038-3.054-0.057-5.347-0.057-6.884c0-4.377-0.623-7.469-1.868-9.274
		c-1.51-2.15-4.302-3.226-8.376-3.226c-1.888,0-4.51,1.076-7.868,3.226c-3.548,2.267-5.32,4.283-5.32,6.048v34.561
		c0,0.961-0.358,1.439-1.075,1.439c-1.209,0-3.02-0.02-5.434-0.058c-2.416-0.038-4.227-0.058-5.434-0.058
		c-0.792,0-1.188-0.44-1.188-1.324c0-3.033,0.046-7.584,0.141-13.652c0.095-6.065,0.142-10.635,0.142-13.708
		c0-8.18-0.85-15.725-2.547-22.638c-0.113-0.345-0.169-0.594-0.169-0.748c0-0.384,0.244-0.652,0.735-0.807
		c0.264-0.038,2.424-0.394,6.48-1.065c4.056-0.671,6.178-1.008,6.368-1.008c0.226,0,0.376,0.307,0.452,0.92
		c0.188,2.382,0.623,4.781,1.302,7.201c1.961-1.574,4.547-3.532,7.755-5.875c3.961-2.457,7.79-3.687,11.489-3.687
		c7.093,0,11.942,2.094,14.547,6.279c1.924,3.073,2.886,8.046,2.886,14.918c0,1.191-0.028,3.016-0.085,5.472
		c-0.056,2.458-0.084,4.301-0.084,5.531c0,2.572,0.036,6.413,0.113,11.52C383.209,418.723,383.247,422.563,383.247,425.137z"/>
	<path fill="#444441" d="M441.939,395.356c0,2.843-1.208,4.742-3.622,5.702c-1.622,0.614-13.301,1.748-35.035,3.398
		c0.49,3.38,2.32,6.26,5.49,8.639c3.019,2.268,6.264,3.399,9.735,3.399c5.961,0,11.434-1.958,16.414-5.876
		c0.603-0.498,1.206-0.996,1.811-1.497c0.302,0,0.5,0.039,0.595,0.115c0.094,0.078,0.802,1.411,2.123,4.004
		c1.32,2.592,1.979,3.983,1.979,4.176c0,0.231-0.302,0.673-0.904,1.325c-5.548,5.99-12.66,8.986-21.338,8.986
		c-8.755,0-15.736-2.659-20.942-7.979c-5.208-5.318-7.812-12.414-7.812-21.284c0-7.91,2.49-14.803,7.472-20.678
		c5.244-6.106,11.679-9.158,19.301-9.158c7.093,0,13.018,2.649,17.771,7.949C439.619,381.725,441.939,387.983,441.939,395.356z
		 M428.47,391.842c0-3.187-1.237-6.01-3.708-8.467c-2.472-2.457-5.255-3.687-8.349-3.687c-3.472,0-6.558,1.421-9.253,4.262
		c-2.699,2.842-4.048,6.03-4.048,9.562c0,0.807,0.679,1.21,2.037,1.21c5.585,0,12.263-0.576,20.036-1.729
		C427.374,392.688,428.47,392.303,428.47,391.842z"/>
	<path fill="#444441" d="M481.391,415.688c0,0.845-0.077,1.998-0.228,3.457c-0.188,1.805-0.302,2.976-0.339,3.513
		c-0.038,0.691-0.095,1.115-0.17,1.268c-0.15,0.27-0.509,0.539-1.076,0.807c-3.094,1.498-7.962,2.246-14.602,2.246
		c-8.83,0-13.245-4.07-13.245-12.211c0-3.264,0.075-8.17,0.227-14.718c0.15-6.545,0.226-11.452,0.226-14.717
		c0-1.574-0.773-2.419-2.32-2.534c-1.396,0-2.773-0.02-4.132-0.058c-0.792-0.192-1.188-1.766-1.188-4.723
		c0-1.114,0.075-2.285,0.227-3.514c0.113-0.922,0.717-1.478,1.812-1.67c0.942,0,1.867-0.02,2.773-0.059
		c1.735-0.076,2.604-0.863,2.604-2.361c0-1.536-0.047-3.878-0.142-7.027s-0.141-5.511-0.141-7.085c0-2.804,0.527-4.205,1.584-4.205
		c0.34,0,3.886,0.595,10.642,1.785c0.866,0.116,1.301,0.538,1.301,1.267c0,1.691-0.123,4.225-0.367,7.604
		c-0.246,3.379-0.368,5.914-0.368,7.604c0,1.114,0.51,1.67,1.527,1.67h13.584c0.643,0,0.964,0.229,0.964,0.691
		c0,0.46-0.067,1.2-0.198,2.218c-0.134,1.018-0.198,1.776-0.198,2.275c0,0.576,0.018,1.46,0.056,2.649
		c0.037,1.19,0.057,2.073,0.057,2.65c0,0.729-0.529,1.094-1.584,1.094c-1.51,0-3.793-0.105-6.849-0.317
		c-3.057-0.211-5.34-0.317-6.849-0.317c-0.303,0-0.528,1.095-0.679,3.283c-0.19,2.727-0.284,6.547-0.284,11.463v8.583
		c0,3.303,0.302,5.606,0.905,6.911c0.906,1.997,2.774,2.995,5.604,2.995c1.168,0,2.886-0.259,5.149-0.777
		c2.265-0.519,3.943-0.777,5.038-0.777C481.163,414.652,481.391,414.998,481.391,415.688z"/>
	<path fill="#444441" d="M544.5,374.158c0,0.154-0.057,0.5-0.169,1.038c-1.472,8.794-2.208,16.378-2.208,22.753
		c0,0.383,0.472,9.005,1.415,25.861l0.057,0.807c0.037,1.114-0.462,1.67-1.5,1.67s-2.604,0.125-4.698,0.375
		c-2.094,0.248-3.649,0.373-4.669,0.373c-0.718,0-1.265-1.343-1.642-4.031c-0.377-2.688-0.736-4.032-1.075-4.032
		c-0.227,0-1.245,0.749-3.057,2.247c-2.228,1.843-4.302,3.246-6.226,4.205c-2.981,1.535-5.963,2.305-8.943,2.305
		c-7.321,0-13.49-2.977-18.508-8.93c-4.754-5.682-7.132-12.307-7.132-19.871c0-8.526,2.396-15.572,7.188-21.14
		c5.018-5.797,11.622-8.698,19.81-8.698c5.773,0,10.812,2.036,15.112,6.106c0.642,0.769,1.642,1.881,3,3.34
		c0.113,0.115,0.227,0.173,0.34,0.173c0.226,0,0.547-1.209,0.962-3.629c0.414-2.42,0.943-3.628,1.585-3.628
		c1.019,0,2.923,0.288,5.716,0.864C542.952,373.007,544.5,373.622,544.5,374.158z M530.066,398.236
		c0-4.724-1.377-8.774-4.131-12.154c-2.906-3.647-6.623-5.472-11.15-5.472s-8.302,1.805-11.32,5.414
		c-2.906,3.457-4.357,7.527-4.357,12.212c0,4.646,1.451,8.679,4.357,12.096c3.019,3.57,6.793,5.356,11.32,5.356
		c4.414,0,8.112-1.823,11.094-5.472C528.67,406.8,530.066,402.807,530.066,398.236z"/>
</g>
<g>
	<path fill="#444441" d="M176.769,529.229c0,10.791-3.02,20.123-9.057,27.994c-6.564,8.564-14.98,12.846-25.243,12.846
		c-1.962,0-4.916-0.076-8.857-0.23c-3.944-0.154-6.896-0.23-8.859-0.23c-1.773,0-4.442,0.076-8.009,0.23
		c-3.565,0.154-6.235,0.23-8.008,0.23c-0.944,0-1.415-0.48-1.415-1.441c0-4.184,0.16-10.502,0.481-18.949
		c0.32-8.447,0.481-14.783,0.481-19.008c0-4.455-0.151-11.156-0.454-20.104c-0.302-8.947-0.452-15.648-0.452-20.104
		c0-0.807,0.489-1.209,1.472-1.209c1.395,0,3.48,0.021,6.254,0.059c2.774,0.039,4.858,0.057,6.254,0.057
		c1.283,0,3.245-0.018,5.887-0.057c2.64-0.037,4.642-0.059,6-0.059c13.093,0,22.847,2.516,29.262,7.547
		c4.603,3.609,8.168,8.467,10.697,14.572C175.58,517.057,176.769,523.008,176.769,529.229z M162.902,529.229
		c0-8.295-2.322-15.053-6.962-20.273c-4.83-5.416-11.282-8.123-19.357-8.123c-6.679,0-9.377-0.037-8.095-0.115
		c-4.415,0.23-6.622,1.057-6.622,2.477c0,2.957-0.067,7.383-0.198,13.277c-0.132,5.895-0.198,10.32-0.198,13.277
		c0,2.918,0.066,7.297,0.198,13.133c0.131,5.838,0.198,10.215,0.198,13.133c0,1.459,2.264,2.305,6.792,2.535
		c-0.605-0.037,2.151-0.059,8.263-0.059c4.339,0,7.792-0.461,10.358-1.383c3.17-1.15,6.019-3.283,8.547-6.393
		C160.542,544.877,162.902,537.717,162.902,529.229z"/>
	<path fill="#444441" d="M322.628,568.916c0,0.846-0.379,1.268-1.133,1.268c-1.245,0-3.104-0.02-5.575-0.059
		c-2.472-0.037-4.33-0.057-5.575-0.057c-0.679,0-1.02-0.557-1.02-1.67c0-1.883,0.058-4.742,0.171-8.584
		c0.113-3.838,0.17-6.719,0.17-8.639c0-1.535-0.02-3.832-0.057-6.883c-0.038-3.055-0.058-5.348-0.058-6.885
		c0-4.377-0.623-7.469-1.867-9.273c-1.51-2.15-4.302-3.227-8.377-3.227c-1.887,0-4.509,1.076-7.867,3.227
		c-3.548,2.266-5.32,4.283-5.32,6.047v34.561c0,0.961-0.359,1.441-1.075,1.441c-1.209,0-3.02-0.02-5.435-0.059
		c-2.416-0.037-4.226-0.057-5.433-0.057c-0.792,0-1.189-0.441-1.189-1.326c0-3.031,0.047-7.582,0.141-13.65
		c0.094-6.066,0.142-10.637,0.142-13.709c0-8.18-0.85-15.725-2.547-22.637c-0.113-0.346-0.169-0.594-0.169-0.748
		c0-0.385,0.245-0.652,0.735-0.807c0.264-0.039,2.424-0.395,6.481-1.066c4.056-0.672,6.178-1.008,6.367-1.008
		c0.226,0,0.376,0.307,0.453,0.92c0.188,2.383,0.623,4.781,1.302,7.201c1.961-1.574,4.546-3.531,7.755-5.875
		c3.961-2.457,7.791-3.686,11.489-3.686c7.093,0,11.942,2.094,14.547,6.277c1.924,3.074,2.886,8.047,2.886,14.918
		c0,1.191-0.028,3.016-0.085,5.473c-0.056,2.459-0.085,4.301-0.085,5.529c0,2.574,0.037,6.414,0.113,11.521
		S322.628,566.344,322.628,568.916z"/>
	<path fill="#444441" d="M383.247,568.916c0,0.846-0.379,1.268-1.133,1.268c-1.245,0-3.104-0.02-5.575-0.059
		c-2.472-0.037-4.33-0.057-5.575-0.057c-0.679,0-1.02-0.557-1.02-1.67c0-1.883,0.058-4.742,0.171-8.584
		c0.113-3.838,0.17-6.719,0.17-8.639c0-1.535-0.02-3.832-0.057-6.883c-0.038-3.055-0.057-5.348-0.057-6.885
		c0-4.377-0.623-7.469-1.868-9.273c-1.51-2.15-4.302-3.227-8.376-3.227c-1.888,0-4.51,1.076-7.868,3.227
		c-3.548,2.266-5.32,4.283-5.32,6.047v34.561c0,0.961-0.358,1.441-1.075,1.441c-1.209,0-3.02-0.02-5.434-0.059
		c-2.416-0.037-4.227-0.057-5.434-0.057c-0.792,0-1.188-0.441-1.188-1.326c0-3.031,0.046-7.582,0.141-13.65
		c0.095-6.066,0.142-10.637,0.142-13.709c0-8.18-0.85-15.725-2.547-22.637c-0.113-0.346-0.169-0.594-0.169-0.748
		c0-0.385,0.244-0.652,0.735-0.807c0.264-0.039,2.424-0.395,6.48-1.066c4.056-0.672,6.178-1.008,6.368-1.008
		c0.226,0,0.376,0.307,0.452,0.92c0.188,2.383,0.623,4.781,1.302,7.201c1.961-1.574,4.547-3.531,7.755-5.875
		c3.961-2.457,7.79-3.686,11.489-3.686c7.093,0,11.942,2.094,14.547,6.277c1.924,3.074,2.886,8.047,2.886,14.918
		c0,1.191-0.028,3.016-0.085,5.473c-0.056,2.459-0.084,4.301-0.084,5.529c0,2.574,0.036,6.414,0.113,11.521
		C383.209,562.504,383.247,566.344,383.247,568.916z"/>
	<path fill="#444441" d="M441.939,539.137c0,2.842-1.208,4.742-3.622,5.701c-1.622,0.615-13.301,1.748-35.035,3.398
		c0.49,3.381,2.32,6.262,5.49,8.641c3.019,2.268,6.264,3.398,9.735,3.398c5.961,0,11.434-1.957,16.414-5.875
		c0.603-0.498,1.206-0.998,1.811-1.498c0.302,0,0.5,0.039,0.595,0.115c0.094,0.078,0.802,1.412,2.123,4.004
		c1.32,2.592,1.979,3.984,1.979,4.176c0,0.23-0.302,0.674-0.904,1.326c-5.548,5.99-12.66,8.984-21.338,8.984
		c-8.755,0-15.736-2.658-20.942-7.977c-5.208-5.318-7.812-12.414-7.812-21.285c0-7.91,2.49-14.803,7.472-20.678
		c5.244-6.105,11.679-9.158,19.301-9.158c7.093,0,13.018,2.648,17.771,7.949C439.619,525.506,441.939,531.764,441.939,539.137z
		 M428.47,535.623c0-3.188-1.237-6.01-3.708-8.467c-2.472-2.457-5.255-3.688-8.349-3.688c-3.472,0-6.558,1.422-9.253,4.264
		c-2.699,2.842-4.048,6.029-4.048,9.561c0,0.807,0.679,1.211,2.037,1.211c5.585,0,12.263-0.576,20.036-1.729
		C427.374,536.469,428.47,536.084,428.47,535.623z"/>
	<path fill="#444441" d="M481.391,559.469c0,0.846-0.077,1.998-0.228,3.457c-0.188,1.805-0.302,2.977-0.339,3.514
		c-0.038,0.691-0.095,1.115-0.17,1.268c-0.15,0.268-0.509,0.537-1.076,0.807c-3.094,1.498-7.962,2.246-14.602,2.246
		c-8.83,0-13.245-4.07-13.245-12.211c0-3.264,0.075-8.17,0.227-14.719c0.15-6.545,0.226-11.451,0.226-14.717
		c0-1.574-0.773-2.42-2.32-2.533c-1.396,0-2.773-0.02-4.132-0.059c-0.792-0.191-1.188-1.766-1.188-4.723
		c0-1.113,0.075-2.285,0.227-3.514c0.113-0.922,0.717-1.479,1.812-1.67c0.942,0,1.867-0.02,2.773-0.059
		c1.735-0.076,2.604-0.863,2.604-2.361c0-1.535-0.047-3.879-0.142-7.027s-0.141-5.51-0.141-7.084c0-2.805,0.527-4.205,1.584-4.205
		c0.34,0,3.886,0.596,10.642,1.785c0.866,0.115,1.301,0.537,1.301,1.268c0,1.689-0.123,4.225-0.367,7.604
		c-0.246,3.379-0.368,5.914-0.368,7.604c0,1.113,0.51,1.67,1.527,1.67h13.584c0.643,0,0.964,0.229,0.964,0.691
		c0,0.461-0.067,1.199-0.198,2.217c-0.134,1.02-0.198,1.777-0.198,2.275c0,0.576,0.018,1.461,0.056,2.65
		c0.037,1.189,0.057,2.072,0.057,2.65c0,0.729-0.529,1.094-1.584,1.094c-1.51,0-3.793-0.105-6.849-0.316
		c-3.057-0.213-5.34-0.318-6.849-0.318c-0.303,0-0.528,1.096-0.679,3.283c-0.19,2.727-0.284,6.547-0.284,11.463v8.584
		c0,3.301,0.302,5.605,0.905,6.91c0.906,1.998,2.774,2.996,5.604,2.996c1.168,0,2.886-0.26,5.149-0.777
		c2.265-0.52,3.943-0.777,5.038-0.777C481.163,558.434,481.391,558.777,481.391,559.469z"/>
	<path fill="#444441" d="M544.5,517.939c0,0.154-0.057,0.5-0.169,1.037c-1.472,8.793-2.208,16.379-2.208,22.752
		c0,0.385,0.472,9.006,1.415,25.863l0.057,0.807c0.037,1.113-0.462,1.67-1.5,1.67s-2.604,0.123-4.698,0.373
		c-2.094,0.25-3.649,0.375-4.669,0.375c-0.718,0-1.265-1.344-1.642-4.031s-0.736-4.033-1.075-4.033c-0.227,0-1.245,0.75-3.057,2.248
		c-2.228,1.842-4.302,3.244-6.226,4.205c-2.981,1.535-5.963,2.303-8.943,2.303c-7.321,0-13.49-2.975-18.508-8.928
		c-4.754-5.682-7.132-12.307-7.132-19.871c0-8.527,2.396-15.572,7.188-21.141c5.018-5.797,11.622-8.697,19.81-8.697
		c5.773,0,10.812,2.035,15.112,6.105c0.642,0.77,1.642,1.881,3,3.34c0.113,0.115,0.227,0.174,0.34,0.174
		c0.226,0,0.547-1.209,0.962-3.629c0.414-2.42,0.943-3.629,1.585-3.629c1.019,0,2.923,0.289,5.716,0.863
		C542.952,516.787,544.5,517.402,544.5,517.939z M530.066,542.018c0-4.725-1.377-8.775-4.131-12.154
		c-2.906-3.648-6.623-5.473-11.15-5.473s-8.302,1.805-11.32,5.414c-2.906,3.457-4.357,7.527-4.357,12.213
		c0,4.645,1.451,8.678,4.357,12.096c3.019,3.57,6.793,5.355,11.32,5.355c4.414,0,8.112-1.822,11.094-5.471
		C528.67,550.58,530.066,546.586,530.066,542.018z"/>
</g>
<text transform="matrix(0.9826 0 0 1 289.2329 594.8301)" fill="#444441" font-family="'Orbitron-Regular'" font-size="22.8325">GESTOR DE DOMICILIOS</text>
<path fill="#FFFFFF" d="M294.798,109.005c1.039,1.201-0.854,4.318-4.231,6.96c-3.378,2.641-6.963,3.801-8.004,2.6
	c-1.04-1.202,0.853-4.321,4.23-6.963C290.173,108.963,293.759,107.798,294.798,109.005z"/>
<g>
	<g>
		<path d="M189.995,264.656c4.634,3.583,9.729,7.291,12.863,12.344c2.22,3.574,3.526,7.675,5.633,11.348
			c1.611,2.812,2.708,5.215,6.398,5.124c4.543-0.11,9.93-4.464,13.816-6.502c5.031-2.64,0.577-10.257-4.452-7.617
			c-1.866,0.976-4.548,1.97-6.212,3.257c-2.011,0.169-2.558,0.808-1.645,1.913c0.667,1.304,0.564,1.095-0.29-0.629
			c-1.729-2.778-2.749-5.66-4.152-8.594c-3.423-7.121-9.599-12.149-15.716-16.879C191.798,254.989,185.511,261.187,189.995,264.656"
			/>
		<path d="M144.552,264.728c-1.047,5-3.174,16.425-10.31,15.281c-4.262-0.682-7.737-4.777-12.334-5
			c-7.063-0.346-11.526,10.177-13.227,15.646c-1.689,5.437,6.829,7.763,8.51,2.347c0.651-2.098,2.385-7.773,4.771-8.697
			c1.284-0.499,4.837,1.765,5.88,2.277c3.713,1.821,6.876,4.077,11.227,2.951c8.546-2.216,12.433-15.028,13.99-22.461
			C154.225,261.53,145.718,259.163,144.552,264.728"/>
		<path fill="#B26327" d="M213.151,145.026c-13.168-13.262-29.988-19.891-50.458-19.891c-20.647,0-37.6,6.9-50.857,20.692
			c-12.902,13.615-19.357,30.836-19.357,51.659c0,19.846,6.718,36.266,20.155,49.256c13.436,12.995,30.126,19.49,50.059,19.49
			c20.47,0,37.29-6.652,50.458-19.957c13.173-13.302,19.758-30.19,19.758-50.659C232.91,175.15,226.325,158.288,213.151,145.026
			 M162.693,217.744c-12.221,0-22.126-9.906-22.126-22.127c0-12.219,9.905-22.126,22.126-22.126s22.132,9.907,22.132,22.126
			C184.825,207.838,174.915,217.744,162.693,217.744"/>
		<path fill="#56210B" d="M162.693,215.909c-8.356-0.097-16.102-5.262-19.017-13.186c-2.966-8.068-0.512-17.235,6.08-22.745
			c6.504-5.438,16.057-6.124,23.315-1.799c7.225,4.301,11.182,12.944,9.565,21.225C180.768,208.948,172.374,215.796,162.693,215.909
			c-2.363,0.028-2.366,3.707,0,3.672c9.992-0.111,18.938-6.282,22.479-15.651c3.526-9.329,0.564-20.373-7.125-26.706
			c-7.751-6.381-18.918-7.382-27.585-2.217c-8.633,5.14-13.114,15.285-11.301,25.129c2.072,11.247,12.234,19.32,23.532,19.444
			C165.061,219.616,165.061,215.938,162.693,215.909"/>
		<path fill="#56210B" stroke="#56210B" stroke-miterlimit="10" d="M185.504,195.22v-9.354c0-12.918,3.461-23.372,7.741-23.372
			c7.17,0,12.977,17.921,12.977,40.066l-0.031-2.612c0,6.852,3.238,12.394,7.237,12.394h0.483c5.307,0,9.607-17.07,9.607-38.162
			c0-3.978,0.618-6.755,3.946-6.755c-4.247-13.669-23.753-40.869-62.901-40.869c-39.144,0-63.021,20.68-70.187,56.788
			c0,19.237,7.102,34.004,17.651,34.004c8.768,0,15.859-15.566,15.859-34.803c0-5.227,1.719-9.453,3.844-9.453
			c2.655,0,4.81,5.715,4.81,12.773c0,25.576,5.556,46.943,12.466,46.943c4.317,0,7.843-7.695,7.843-16.381
			c0.066,0.251-7.205-2.413-10.917-7.22c-1.967-2.554-4.892-6.211-5.015-13.988c-0.122-7.513,4.267-13.947,8.185-17.135
			c5.692-4.619,13.869-5.936,19.25-4.397c4.803,1.375,10.421,4.745,12.861,8.684c0.9,1.452,2.041,2.865,2.704,5.07
			C185.083,191.313,185.504,195.22,185.504,195.22"/>
		<path d="M98.751,165.665l93.247-35.014l-3.985-11.252c14.563-28.364-23.847-20.871-59.498-3.427l4.73-2.25l-3.553-9.412
			l-4.357,1.635l3.836,9.723c-24.245,10.953-54.82,45.789-32,44.84L98.751,165.665z"/>
		<path d="M193.329,253.86c-11.857,5.37-22.371-1.789-26.397-4.829c-2.231,2.145-11.181,9.303-24.606,5.276
			c-7.88-2.951-12.113-11.262-13.884-21.46c1.629,2.4,4.601,7.307,12.009,6.907c15.837-1.549,14.941-11.304,26.481-4.176
			c11.546-8.652,15.304,5.845,29.078,4.505c4.249-0.716,6.18-2.901,9.313-6.626C206.213,240.117,200.666,249.833,193.329,253.86"/>
	</g>
	<g>
		<ellipse fill="#EBCF94" cx="173.763" cy="168.214" rx="3.758" ry="4.614"/>
		<path fill="#EBCF94" d="M185.555,145.127c0,1.172-2.637,2.118-5.894,2.118s-5.899-0.946-5.899-2.118
			c0-1.169,2.643-2.117,5.899-2.117S185.555,143.958,185.555,145.127z"/>
		<path fill="#EBCF94" d="M113.081,186.382c-1.423-0.246-2.054-3.146-1.408-6.468c0.646-3.326,2.32-5.821,3.744-5.569
			c1.424,0.25,2.057,3.146,1.41,6.471S114.507,186.632,113.081,186.382z"/>
		<path fill="#EBCF94" d="M159.751,165.285c-1.423-0.246-2.054-3.146-1.408-6.468c0.646-3.326,2.32-5.821,3.744-5.569
			c1.424,0.25,2.057,3.146,1.41,6.471S161.177,165.535,159.751,165.285z"/>
		<path fill="#EBCF94" d="M210.802,177.535c1.387-1.02,4.336,0.402,6.598,3.176c2.262,2.771,2.973,5.842,1.592,6.864
			c-1.383,1.018-4.335-0.406-6.593-3.177C210.136,181.623,209.421,178.553,210.802,177.535z"/>
		<path fill="#EBCF94" d="M208.991,145.47c1.311,0.971,0.768,3.71-1.205,6.116c-1.977,2.407-4.639,3.573-5.946,2.603
			c-1.306-0.971-0.767-3.705,1.208-6.114C205.023,145.666,207.683,144.5,208.991,145.47z"/>
		<path fill="#EBCF94" d="M147.095,165.255c-0.534,1.475-3.229,1.93-6.019,1.015c-2.787-0.912-4.615-2.847-4.083-4.321
			c0.535-1.475,3.231-1.93,6.019-1.016C145.801,161.846,147.627,163.78,147.095,165.255z"/>
		<path fill="#EBCF94" d="M118.349,198.492c0,1.549-3.101,2.806-6.928,2.806c-3.829,0-6.931-1.257-6.931-2.806
			c0-1.553,3.102-2.808,6.931-2.808C115.248,195.684,118.349,196.939,118.349,198.492z"/>
	</g>
</g>
<g>
	<g>
		<path d="M460.596,224.907c3.33,2.575,6.991,5.239,9.244,8.871c1.595,2.568,2.533,5.516,4.048,8.155
			c1.158,2.021,1.946,3.748,4.598,3.682c3.265-0.079,7.136-3.208,9.929-4.673c3.616-1.897,0.414-7.371-3.2-5.474
			c-1.34,0.701-3.268,1.416-4.463,2.341c-1.445,0.122-1.839,0.581-1.183,1.375c0.479,0.937,0.405,0.787-0.208-0.452
			c-1.242-1.996-1.976-4.067-2.983-6.176c-2.46-5.117-6.898-8.73-11.294-12.13C461.892,217.96,457.373,222.414,460.596,224.907"/>
		<path d="M427.939,224.958c-0.753,3.593-2.281,11.804-7.409,10.981c-3.063-0.49-5.561-3.433-8.863-3.593
			c-5.075-0.249-8.283,7.313-9.506,11.244c-1.213,3.907,4.907,5.578,6.115,1.687c0.469-1.508,1.714-5.586,3.429-6.25
			c0.923-0.358,3.476,1.268,4.226,1.636c2.669,1.309,4.941,2.93,8.068,2.121c6.142-1.593,8.935-10.8,10.054-16.142
			C434.89,222.66,428.777,220.959,427.939,224.958"/>
		<path fill="#B26327" d="M477.236,138.938c-9.464-9.53-21.55-14.294-36.261-14.294c-14.837,0-27.021,4.958-36.547,14.87
			c-9.271,9.784-13.911,22.16-13.911,37.124c0,14.262,4.828,26.062,14.484,35.396c9.655,9.338,21.65,14.006,35.974,14.006
			c14.711,0,26.797-4.78,36.261-14.341c9.467-9.56,14.198-21.696,14.198-36.405C491.435,160.585,486.703,148.468,477.236,138.938
			 M440.976,191.195c-8.782,0-15.899-7.119-15.899-15.901c0-8.781,7.117-15.901,15.899-15.901s15.905,7.12,15.905,15.901
			C456.881,184.076,449.758,191.195,440.976,191.195"/>
		<path fill="#56210B" d="M440.976,189.876c-6.005-0.069-11.571-3.781-13.665-9.476c-2.132-5.798-0.368-12.385,4.369-16.345
			c4.674-3.907,11.538-4.4,16.754-1.293c5.192,3.091,8.036,9.302,6.874,15.253C453.965,184.874,447.933,189.794,440.976,189.876
			c-1.698,0.021-1.7,2.664,0,2.639c7.181-0.08,13.609-4.514,16.155-11.247c2.533-6.704,0.405-14.64-5.121-19.192
			c-5.57-4.585-13.595-5.305-19.823-1.593c-6.204,3.694-9.425,10.984-8.121,18.059c1.489,8.083,8.792,13.884,16.91,13.973
			C442.677,192.54,442.677,189.896,440.976,189.876"/>
		<path fill="#56210B" stroke="#56210B" stroke-miterlimit="10" d="M457.367,175.008v-6.722c0-9.283,2.487-16.795,5.564-16.795
			c5.152,0,9.325,12.878,9.325,28.792l-0.022-1.877c0,4.924,2.327,8.907,5.2,8.907h0.348c3.813,0,6.904-12.267,6.904-27.424
			c0-2.858,0.443-4.854,2.835-4.854c-3.051-9.823-17.07-29.369-45.202-29.369c-28.13,0-45.288,14.861-50.438,40.809
			c0,13.824,5.104,24.437,12.684,24.437c6.302,0,11.397-11.187,11.397-25.01c0-3.756,1.234-6.793,2.763-6.793
			c1.908,0,3.456,4.107,3.456,9.18c0,18.379,3.993,33.734,8.959,33.734c3.102,0,5.636-5.53,5.636-11.771
			c0.047,0.18-5.177-1.734-7.845-5.188c-1.414-1.835-3.516-4.463-3.604-10.052c-0.087-5.399,3.066-10.022,5.882-12.313
			c4.091-3.319,9.967-4.266,13.834-3.16c3.451,0.989,7.488,3.41,9.242,6.241c0.647,1.043,1.467,2.059,1.943,3.644
			C457.065,172.201,457.367,175.008,457.367,175.008"/>
		<path d="M395.025,153.769l67.009-25.162l-2.863-8.086c10.466-20.383-17.137-14.999-42.757-2.463l3.399-1.617l-2.553-6.764
			l-3.131,1.175l2.756,6.987c-17.422,7.871-39.395,32.905-22.996,32.224L395.025,153.769z"/>
		<path d="M462.991,217.148c-8.521,3.859-16.076-1.286-18.97-3.47c-1.604,1.541-8.035,6.685-17.683,3.792
			c-5.663-2.121-8.705-8.093-9.978-15.422c1.17,1.725,3.307,5.251,8.63,4.964c11.381-1.113,10.737-8.124,19.03-3.001
			c8.298-6.217,10.998,4.2,20.896,3.237c3.055-0.515,4.442-2.084,6.693-4.762C472.25,207.272,468.264,214.255,462.991,217.148"/>
	</g>
	<g>
		<ellipse fill="#EBCF94" cx="448.931" cy="155.601" rx="2.7" ry="3.316"/>
		<path fill="#EBCF94" d="M457.404,139.01c0,0.842-1.896,1.522-4.234,1.522c-2.342,0-4.24-0.68-4.24-1.522
			c0-0.84,1.898-1.521,4.24-1.521C455.509,137.489,457.404,138.17,457.404,139.01z"/>
		<path fill="#EBCF94" d="M405.323,168.657c-1.023-0.177-1.477-2.261-1.012-4.648c0.465-2.39,1.667-4.183,2.69-4.002
			c1.023,0.18,1.479,2.261,1.014,4.65S406.348,168.836,405.323,168.657z"/>
		<path fill="#EBCF94" d="M438.861,153.496c-1.022-0.177-1.477-2.261-1.012-4.648c0.465-2.39,1.667-4.183,2.69-4.002
			c1.023,0.18,1.479,2.261,1.014,4.65S439.886,153.676,438.861,153.496z"/>
		<path fill="#EBCF94" d="M475.548,162.299c0.997-0.732,3.116,0.289,4.741,2.282c1.625,1.991,2.137,4.198,1.144,4.933
			c-0.993,0.731-3.115-0.292-4.737-2.283C475.069,165.237,474.556,163.031,475.548,162.299z"/>
		<path fill="#EBCF94" d="M474.247,139.257c0.941,0.698,0.552,2.666-0.866,4.395c-1.421,1.73-3.333,2.568-4.273,1.871
			c-0.938-0.698-0.551-2.663,0.868-4.394S473.307,138.559,474.247,139.257z"/>
		<path fill="#EBCF94" d="M429.767,153.475c-0.384,1.06-2.321,1.387-4.325,0.729c-2.003-0.655-3.316-2.045-2.935-3.105
			c0.385-1.06,2.322-1.387,4.325-0.729C428.837,151.024,430.149,152.415,429.767,153.475z"/>
		<path fill="#EBCF94" d="M409.108,177.359c0,1.113-2.229,2.016-4.978,2.016c-2.753,0-4.981-0.903-4.981-2.016
			c0-1.116,2.229-2.018,4.981-2.018C406.88,175.342,409.108,176.244,409.108,177.359z"/>
	</g>
</g>
<g>
	<g>
		<path d="M237.471,427.411c2.641,2.041,5.545,4.154,7.331,7.033c1.265,2.037,2.009,4.375,3.21,6.469
			c0.919,1.602,1.544,2.971,3.646,2.92c2.589-0.064,5.66-2.545,7.874-3.707c2.868-1.504,0.329-5.846-2.538-4.34
			c-1.063,0.555-2.591,1.123-3.539,1.855c-1.146,0.096-1.458,0.459-0.938,1.09c0.38,0.744,0.321,0.625-0.165-0.357
			c-0.985-1.582-1.567-3.227-2.366-4.896c-1.951-4.059-5.471-6.924-8.957-9.623C238.499,421.901,234.916,425.433,237.471,427.411"/>
		<path d="M211.573,427.45c-0.597,2.852-1.809,9.361-5.875,8.709c-2.429-0.387-4.41-2.721-7.029-2.85
			c-4.025-0.195-6.569,5.801-7.539,8.918c-0.962,3.098,3.892,4.424,4.85,1.338c0.372-1.197,1.359-4.43,2.719-4.957
			c0.732-0.283,2.757,1.006,3.351,1.297c2.117,1.039,3.919,2.324,6.399,1.684c4.871-1.264,7.086-8.564,7.974-12.803
			C217.085,425.628,212.238,424.28,211.573,427.45"/>
		<path fill="#B26327" d="M250.668,359.233c-7.505-7.559-17.09-11.336-28.756-11.336c-11.767,0-21.429,3.933-28.983,11.792
			c-7.353,7.76-11.032,17.574-11.032,29.441c0,11.31,3.829,20.667,11.486,28.072c7.657,7.404,17.17,11.107,28.529,11.107
			c11.667,0,21.251-3.791,28.756-11.375c7.508-7.582,11.26-17.205,11.26-28.87C261.928,376.4,258.176,366.79,250.668,359.233
			 M221.912,400.675c-6.965,0-12.609-5.645-12.609-12.61c0-6.964,5.644-12.611,12.609-12.611c6.964,0,12.614,5.646,12.614,12.611
			C234.525,395.03,228.876,400.675,221.912,400.675"/>
		<path fill="#56210B" d="M221.912,399.63c-4.762-0.057-9.176-3-10.837-7.516c-1.69-4.598-0.292-9.822,3.465-12.962
			c3.707-3.098,9.151-3.489,13.287-1.025c4.118,2.452,6.373,7.376,5.451,12.097C232.213,395.663,227.429,399.563,221.912,399.63
			c-1.347,0.016-1.348,2.111,0,2.092c5.695-0.063,10.793-3.579,12.812-8.919c2.009-5.317,0.321-11.611-4.061-15.221
			c-4.418-3.636-10.781-4.207-15.721-1.263c-4.92,2.93-7.475,8.711-6.44,14.322c1.181,6.41,6.973,11.009,13.411,11.081
			C223.261,401.741,223.261,399.646,221.912,399.63"/>
		<path fill="#56210B" stroke="#56210B" stroke-miterlimit="10" d="M234.911,387.837v-5.33c0-7.362,1.973-13.32,4.413-13.32
			c4.086,0,7.395,10.213,7.395,22.833l-0.018-1.489c0,3.905,1.846,7.063,4.125,7.063h0.275c3.025,0,5.476-9.728,5.476-21.749
			c0-2.267,0.352-3.85,2.249-3.85c-2.419-7.791-13.538-23.292-35.848-23.292c-22.309,0-35.916,11.785-40,32.363
			c0,10.963,4.047,19.381,10.059,19.381c4.998,0,9.039-8.873,9.039-19.835c0-2.979,0.979-5.387,2.191-5.387
			c1.514,0,2.741,3.257,2.741,7.28c0,14.575,3.167,26.753,7.105,26.753c2.459,0,4.469-4.387,4.469-9.336
			c0.037,0.143-4.105-1.376-6.222-4.116c-1.121-1.455-2.788-3.539-2.858-7.972c-0.069-4.282,2.432-7.948,4.665-9.765
			c3.244-2.632,7.904-3.383,10.971-2.506c2.737,0.784,5.938,2.704,7.329,4.949c0.514,0.828,1.164,1.632,1.542,2.89
			C234.672,385.611,234.911,387.837,234.911,387.837"/>
		<path d="M185.471,370.994l53.142-19.955l-2.271-6.413c8.3-16.166-13.59-11.895-33.909-1.954l2.696-1.282l-2.024-5.364
			l-2.483,0.932l2.186,5.541c-13.816,6.242-31.242,26.096-18.237,25.555L185.471,370.994z"/>
		<path d="M239.372,421.257c-6.758,3.061-12.75-1.02-15.044-2.75c-1.272,1.221-6.372,5.301-14.023,3.006
			c-4.492-1.684-6.904-6.42-7.913-12.23c0.928,1.367,2.622,4.166,6.843,3.936c9.026-0.883,8.516-6.441,15.092-2.379
			c6.581-4.932,8.722,3.33,16.571,2.566c2.422-0.406,3.523-1.652,5.308-3.775C246.714,413.425,243.553,418.962,239.372,421.257"/>
	</g>
	<g>
		<ellipse fill="#EBCF94" cx="228.22" cy="372.447" rx="2.141" ry="2.63"/>
		<ellipse fill="#EBCF94" cx="231.58" cy="359.29" rx="3.36" ry="1.207"/>
		<path fill="#EBCF94" d="M193.637,382.802c-0.812-0.141-1.171-1.794-0.802-3.687c0.369-1.896,1.322-3.317,2.134-3.174
			c0.812,0.143,1.172,1.793,0.804,3.688C195.404,381.523,194.45,382.944,193.637,382.802z"/>
		<path fill="#EBCF94" d="M220.235,370.778c-0.811-0.141-1.171-1.793-0.802-3.686c0.368-1.896,1.322-3.317,2.133-3.174
			c0.812,0.143,1.173,1.793,0.804,3.688C222.001,369.5,221.047,370.92,220.235,370.778z"/>
		<path fill="#EBCF94" d="M249.329,377.759c0.791-0.581,2.471,0.229,3.76,1.81c1.29,1.579,1.695,3.33,0.907,3.912
			c-0.787,0.579-2.471-0.231-3.757-1.811C248.95,380.089,248.542,378.339,249.329,377.759z"/>
		<path fill="#EBCF94" d="M248.298,359.485c0.747,0.554,0.438,2.114-0.687,3.486c-1.127,1.372-2.643,2.037-3.389,1.484
			c-0.745-0.553-0.437-2.112,0.688-3.485C246.036,359.597,247.552,358.932,248.298,359.485z"/>
		<path fill="#EBCF94" d="M213.022,370.761c-0.304,0.84-1.841,1.1-3.43,0.579c-1.589-0.521-2.63-1.623-2.327-2.463
			c0.305-0.84,1.841-1.1,3.43-0.579C212.285,368.817,213.326,369.92,213.022,370.761z"/>
		<ellipse fill="#EBCF94" cx="192.69" cy="389.703" rx="3.949" ry="1.599"/>
	</g>
</g>
<g>
	<g>
		<path d="M235.8,571.149c2.641,2.041,5.545,4.154,7.331,7.033c1.265,2.037,2.009,4.375,3.21,6.469
			c0.919,1.602,1.544,2.971,3.646,2.92c2.589-0.064,5.66-2.545,7.874-3.707c2.868-1.504,0.329-5.846-2.538-4.34
			c-1.063,0.555-2.591,1.123-3.539,1.855c-1.146,0.096-1.458,0.459-0.938,1.09c0.38,0.744,0.321,0.625-0.165-0.357
			c-0.985-1.582-1.567-3.227-2.366-4.896c-1.951-4.059-5.471-6.924-8.957-9.623C236.828,565.64,233.245,569.171,235.8,571.149"/>
		<path d="M209.902,571.188c-0.597,2.852-1.809,9.361-5.875,8.709c-2.429-0.387-4.41-2.721-7.029-2.85
			c-4.025-0.195-6.569,5.801-7.539,8.918c-0.962,3.098,3.892,4.424,4.85,1.338c0.372-1.197,1.359-4.43,2.719-4.957
			c0.732-0.283,2.757,1.006,3.351,1.297c2.117,1.039,3.919,2.324,6.399,1.684c4.871-1.264,7.086-8.564,7.974-12.803
			C215.414,569.366,210.567,568.019,209.902,571.188"/>
		<path fill="#B26327" d="M248.997,502.971c-7.505-7.559-17.09-11.336-28.756-11.336c-11.767,0-21.429,3.933-28.983,11.793
			c-7.353,7.76-11.032,17.573-11.032,29.441c0,11.31,3.829,20.667,11.486,28.071c7.657,7.404,17.17,11.107,28.529,11.107
			c11.667,0,21.251-3.791,28.756-11.375c7.508-7.582,11.26-17.205,11.26-28.87C260.257,520.139,256.505,510.527,248.997,502.971
			 M220.241,544.413c-6.965,0-12.609-5.646-12.609-12.61s5.644-12.611,12.609-12.611c6.964,0,12.614,5.646,12.614,12.611
			S227.205,544.413,220.241,544.413"/>
		<path fill="#56210B" d="M220.241,543.368c-4.762-0.057-9.176-2.999-10.837-7.517c-1.69-4.598-0.292-9.821,3.465-12.962
			c3.707-3.099,9.151-3.489,13.287-1.025c4.118,2.452,6.373,7.376,5.451,12.097C230.542,539.4,225.758,543.302,220.241,543.368
			c-1.347,0.016-1.348,2.111,0,2.092c5.695-0.063,10.793-3.579,12.812-8.919c2.009-5.317,0.321-11.611-4.061-15.221
			c-4.418-3.637-10.781-4.207-15.721-1.264c-4.92,2.93-7.475,8.712-6.44,14.322c1.181,6.41,6.973,11.009,13.411,11.081
			C221.59,545.479,221.59,543.384,220.241,543.368"/>
		<path fill="#56210B" stroke="#56210B" stroke-miterlimit="10" d="M233.24,531.576v-5.33c0-7.363,1.973-13.32,4.413-13.32
			c4.086,0,7.395,10.213,7.395,22.834l-0.018-1.489c0,3.905,1.846,7.063,4.125,7.063h0.275c3.025,0,5.476-9.728,5.476-21.748
			c0-2.268,0.352-3.85,2.249-3.85c-2.419-7.791-13.538-23.292-35.848-23.292c-22.309,0-35.916,11.785-40,32.363
			c0,10.964,4.047,19.381,10.059,19.381c4.998,0,9.039-8.872,9.039-19.835c0-2.979,0.979-5.388,2.191-5.388
			c1.514,0,2.741,3.257,2.741,7.28c0,14.574,3.167,26.753,7.105,26.753c2.459,0,4.469-4.387,4.469-9.336
			c0.037,0.143-4.105-1.376-6.222-4.116c-1.121-1.455-2.788-3.539-2.858-7.971c-0.069-4.282,2.432-7.949,4.665-9.766
			c3.244-2.632,7.904-3.383,10.971-2.506c2.737,0.783,5.938,2.704,7.329,4.949c0.514,0.828,1.164,1.632,1.542,2.89
			C233.001,529.35,233.24,531.576,233.24,531.576"/>
		<path d="M183.8,514.732l53.142-19.955l-2.271-6.412c8.3-16.166-13.59-11.896-33.909-1.954l2.696-1.282l-2.024-5.363l-2.483,0.932
			l2.186,5.541c-13.816,6.242-31.242,26.096-18.237,25.555L183.8,514.732z"/>
		<path d="M237.701,564.995c-6.758,3.061-12.75-1.02-15.044-2.75c-1.272,1.221-6.372,5.301-14.023,3.006
			c-4.492-1.684-6.904-6.42-7.913-12.23c0.928,1.367,2.622,4.166,6.843,3.936c9.026-0.883,8.516-6.441,15.092-2.379
			c6.581-4.932,8.722,3.33,16.571,2.566c2.422-0.406,3.523-1.652,5.308-3.775C245.043,557.163,241.882,562.7,237.701,564.995"/>
	</g>
	<g>
		<ellipse fill="#EBCF94" cx="226.55" cy="516.186" rx="2.141" ry="2.63"/>
		<ellipse fill="#EBCF94" cx="229.909" cy="503.028" rx="3.36" ry="1.207"/>
		<path fill="#EBCF94" d="M191.966,526.54c-0.812-0.142-1.171-1.794-0.802-3.687c0.369-1.896,1.322-3.317,2.134-3.174
			c0.812,0.143,1.172,1.793,0.804,3.688C193.733,525.262,192.779,526.682,191.966,526.54z"/>
		<path fill="#EBCF94" d="M218.564,514.516c-0.811-0.141-1.171-1.793-0.802-3.686c0.368-1.896,1.322-3.317,2.133-3.174
			c0.812,0.143,1.173,1.793,0.804,3.688S219.376,514.658,218.564,514.516z"/>
		<path fill="#EBCF94" d="M247.658,521.498c0.791-0.582,2.471,0.229,3.76,1.81c1.29,1.579,1.695,3.329,0.907,3.912
			c-0.787,0.579-2.471-0.231-3.757-1.812C247.279,523.828,246.872,522.078,247.658,521.498z"/>
		<path fill="#EBCF94" d="M246.627,503.223c0.747,0.555,0.438,2.115-0.687,3.486c-1.127,1.372-2.643,2.037-3.389,1.484
			c-0.745-0.554-0.437-2.113,0.688-3.485C244.365,503.335,245.881,502.67,246.627,503.223z"/>
		<path fill="#EBCF94" d="M211.352,514.499c-0.304,0.841-1.841,1.1-3.43,0.579c-1.589-0.521-2.63-1.623-2.327-2.463
			c0.305-0.841,1.841-1.101,3.43-0.579C210.614,512.556,211.655,513.658,211.352,514.499z"/>
		<ellipse fill="#EBCF94" cx="191.019" cy="533.441" rx="3.949" ry="1.599"/>
	</g>
</g>
</svg>
